<?xml version="1.0" encoding="UTF-8" standalone="no" ?>
<svg xmlns:dc="http://purl.org/dc/elements/1.1/" xmlns:cc="http://creativecommons.org/ns#" xmlns:rdf="http://www.w3.org/1999/02/22-rdf-syntax-ns#" xmlns:svg="http://www.w3.org/2000/svg" xmlns="http://www.w3.org/2000/svg" xmlns:sodipodi="http://sodipodi.sourceforge.net/DTD/sodipodi-0.dtd" xmlns:inkscape="http://www.inkscape.org/namespaces/inkscape" enable-background="new 0 0 24 24" height="24px" id="Layer_1" version="1.1" viewBox="0 0 24 24" width="24px" xml:space="preserve" inkscape:version="0.48.4 r9939" sodipodi:docname="cross.svg">
    <metadata id="metadata9">
        <rdf:RDF>
            <cc:Work rdf:about="">
                <dc:format>image/svg+xml</dc:format>
                <dc:type rdf:resource="http://purl.org/dc/dcmitype/StillImage" />
            </cc:Work>
        </rdf:RDF>
    </metadata>
    <defs id="defs7" />
    <sodipodi:namedview pagecolor="#ffffff" bordercolor="#666666" borderopacity="1" objecttolerance="10" gridtolerance="10" guidetolerance="10" inkscape:pageopacity="0" inkscape:pageshadow="2" inkscape:window-width="1366" inkscape:window-height="702" id="namedview5" showgrid="false" inkscape:zoom="7.375" inkscape:cx="16" inkscape:cy="16" inkscape:window-x="-4" inkscape:window-y="0" inkscape:window-maximized="1" inkscape:current-layer="Layer_1" />
    <path d="m 16.309203,11.773237 6.567,-6.5659997 c 0.962,-0.963 0.962,-2.539 0,-3.502 l -0.876,-0.87500001 c -0.963,-0.964 -2.539,-0.964 -3.501,0 l -6.567,6.56600001 -6.5669996,-6.56700001 c -0.962,-0.963 -2.538,-0.963 -3.501,0 L 0.98820339,1.7042373 c -0.962,0.963 -0.962,2.539 0,3.502 l 6.56600001,6.5659997 -6.56600001,6.567 c -0.962,0.963 -0.962,2.538 0,3.501 l 0.87600001,0.876 c 0.963,0.963 2.539,0.963 3.501,0 l 6.5669996,-6.566 6.567,6.566 c 0.962,0.963 2.538,0.963 3.501,0 l 0.876,-0.876 c 0.962,-0.963 0.962,-2.538 0,-3.501 l -6.567,-6.566 z" id="path3" inkscape:connector-curvature="0" style="fill:#ffffff" />
</svg>
