<?xml version="1.0" encoding="UTF-8" standalone="no" ?>
<svg xmlns:dc="http://purl.org/dc/elements/1.1/" xmlns:cc="http://creativecommons.org/ns#" xmlns:rdf="http://www.w3.org/1999/02/22-rdf-syntax-ns#" xmlns:svg="http://www.w3.org/2000/svg" xmlns="http://www.w3.org/2000/svg" xmlns:sodipodi="http://sodipodi.sourceforge.net/DTD/sodipodi-0.dtd" xmlns:inkscape="http://www.inkscape.org/namespaces/inkscape" enable-background="new 0 0 32 32" height="32px" id="Layer_1" version="1.1" viewBox="0 0 24 24" width="32px" xml:space="preserve" inkscape:version="0.48.4 r9939" sodipodi:docname="grid.svg">
    <metadata id="metadata26">
        <rdf:RDF>
            <cc:Work rdf:about="">
                <dc:format>image/svg+xml</dc:format>
                <dc:type rdf:resource="http://purl.org/dc/dcmitype/StillImage" />
            </cc:Work>
        </rdf:RDF>
    </metadata>
    <defs id="defs24" />
    <sodipodi:namedview pagecolor="#ffffff" bordercolor="#666666" borderopacity="1" objecttolerance="10" gridtolerance="10" guidetolerance="10" inkscape:pageopacity="0" inkscape:pageshadow="2" inkscape:window-width="1366" inkscape:window-height="702" id="namedview22" showgrid="false" inkscape:zoom="7.375" inkscape:cx="16" inkscape:cy="16" inkscape:window-x="-4" inkscape:window-y="0" inkscape:window-maximized="1" inkscape:current-layer="Layer_1" />
    <g id="grid-2" transform="matrix(0.92291386,0,0,0.92291386,-2.4865416,-2.66405)">
        <path d="m 10.246,4.228 c 0,-0.547 -0.443,-0.991 -0.99,-0.991 H 3.914 C 3.366,3.237 2.923,3.68 2.923,4.228 V 9.57 c 0,0.546 0.443,0.99 0.991,0.99 h 5.342 c 0.547,0 0.99,-0.444 0.99,-0.99 V 4.228 z" id="path4" inkscape:connector-curvature="0" style="fill:#ffffff" />
        <path d="m 19.453,4.228 c 0,-0.547 -0.443,-0.991 -0.991,-0.991 h -5.343 c -0.546,0 -0.99,0.443 -0.99,0.991 V 9.57 c 0,0.546 0.444,0.99 0.99,0.99 h 5.343 c 0.548,0 0.991,-0.444 0.991,-0.99 V 4.228 z" id="path6" inkscape:connector-curvature="0" style="fill:#ffffff" />
        <path d="m 28.868,4.228 c 0,-0.547 -0.443,-0.991 -0.99,-0.991 h -5.342 c -0.548,0 -0.991,0.443 -0.991,0.991 V 9.57 c 0,0.546 0.443,0.99 0.991,0.99 h 5.342 c 0.547,0 0.99,-0.444 0.99,-0.99 V 4.228 z" id="path8" inkscape:connector-curvature="0" style="fill:#ffffff" />
        <path d="m 10.246,13.224 c 0,-0.547 -0.443,-0.99 -0.99,-0.99 H 3.914 c -0.548,0 -0.991,0.443 -0.991,0.99 v 5.342 c 0,0.549 0.443,0.99 0.991,0.99 h 5.342 c 0.547,0 0.99,-0.441 0.99,-0.99 v -5.342 z" id="path10" inkscape:connector-curvature="0" style="fill:#ffffff" />
        <path d="m 19.453,13.224 c 0,-0.547 -0.443,-0.99 -0.991,-0.99 h -5.343 c -0.546,0 -0.99,0.443 -0.99,0.99 v 5.342 c 0,0.549 0.444,0.99 0.99,0.99 h 5.343 c 0.548,0 0.991,-0.441 0.991,-0.99 v -5.342 z" id="path12" inkscape:connector-curvature="0" style="fill:#ffffff" />
        <path d="m 28.868,13.224 c 0,-0.547 -0.443,-0.99 -0.99,-0.99 h -5.342 c -0.548,0 -0.991,0.443 -0.991,0.99 v 5.342 c 0,0.549 0.443,0.99 0.991,0.99 h 5.342 c 0.547,0 0.99,-0.441 0.99,-0.99 v -5.342 z" id="path14" inkscape:connector-curvature="0" style="fill:#ffffff" />
        <path d="m 10.246,22.43 c 0,-0.545 -0.443,-0.99 -0.99,-0.99 H 3.914 c -0.548,0 -0.991,0.445 -0.991,0.99 v 5.344 c 0,0.547 0.443,0.99 0.991,0.99 h 5.342 c 0.547,0 0.99,-0.443 0.99,-0.99 V 22.43 z" id="path16" inkscape:connector-curvature="0" style="fill:#ffffff" />
        <path d="m 19.453,22.43 c 0,-0.545 -0.443,-0.99 -0.991,-0.99 h -5.343 c -0.546,0 -0.99,0.445 -0.99,0.99 v 5.344 c 0,0.547 0.444,0.99 0.99,0.99 h 5.343 c 0.548,0 0.991,-0.443 0.991,-0.99 V 22.43 z" id="path18" inkscape:connector-curvature="0" style="fill:#ffffff" />
        <path d="m 28.868,22.43 c 0,-0.545 -0.443,-0.99 -0.99,-0.99 h -5.342 c -0.548,0 -0.991,0.445 -0.991,0.99 v 5.344 c 0,0.547 0.443,0.99 0.991,0.99 h 5.342 c 0.547,0 0.99,-0.443 0.99,-0.99 V 22.43 z" id="path20" inkscape:connector-curvature="0" style="fill:#ffffff" />
    </g>
</svg>
