<?xml version="1.0" encoding="UTF-8" standalone="no" ?>
<!-- Created with Inkscape (http://www.inkscape.org/) -->

<svg xmlns:dc="http://purl.org/dc/elements/1.1/" xmlns:cc="http://creativecommons.org/ns#" xmlns:rdf="http://www.w3.org/1999/02/22-rdf-syntax-ns#" xmlns:svg="http://www.w3.org/2000/svg" xmlns="http://www.w3.org/2000/svg" xmlns:sodipodi="http://sodipodi.sourceforge.net/DTD/sodipodi-0.dtd" xmlns:inkscape="http://www.inkscape.org/namespaces/inkscape" width="68" height="70" id="svg2" sodipodi:version="0.32" inkscape:version="0.48.4 r9939" sodipodi:docname="plus sign white.svg" inkscape:output_extension="org.inkscape.output.svg.inkscape" version="1.1">
    <g inkscape:label="Layer 1" inkscape:groupmode="layer" id="layer1">
        <path style="font-size:1000px;font-style:normal;font-variant:normal;font-weight:normal;font-stretch:normal;fill:#ffffff;fill-opacity:1;stroke:none;font-family:OCRA;-inkscape-font-specification:OCRA" d="m 32.49953, 4.4638 2.82154,0 c 0.26867,0.0897 0.67175,0.2688 1.20924,0.53744 1.25396,0.62709 2.19448,1.61239 2.82154,2.9559 0.44781,0.80623 0.67174,2.68726 0.67179,5.64309 -5e-5,0.26879 -5e-5,2.28417 0,6.04616 l 0,9.94258 9.80822,0 c 6.44918,6e-5 9.85294,0.0448 10.2113,0.13436 2.77668,0.53749 4.47856,2.10501 5.10565,4.70257 0.0895,0.53749 0.13428,1.07492 0.13436,1.61231 -8e-5,2.7768 -1.2541,4.70261 -3.76206,5.77744 -0.44794,0.26877 -0.94059,0.44791 -1.47795,0.53744 -0.35836,0.0896 -3.76212,0.1344 -10.2113,0.13436 l -9.80822,0 0,9.94258 c -5e-5,6.9867 -0.22398,10.88311 -0.67179,11.68925 -0.62706,1.34361 -1.56758,2.32891 -2.82154,2.9559 -1.25407,0.62702 -2.4633,0.85096 -3.6277,0.67179 -0.44791,-0.0896 -0.94056,-0.22391 -1.47795,-0.40308 -0.8062,-0.26869 -1.56757,-0.76134 -2.28411,-1.47795 -0.71662,-0.71656 -1.20927,-1.47793 -1.47795,-2.2841 -0.26876,-0.80613 -0.40311,-4.61297 -0.40308,-11.42053 l 0,-9.67386 -10.07693,0 -9.94258,-0.13436 -0.53744,-0.13436 c -2.95592,-0.89568 -4.52344,-2.95585 -4.70257,-6.18052 -1e-5,-3.04542 1.56751,-5.10559 4.70257,-6.18052 l 0.53744,-0.26872 9.94258,0 10.07693,0 0,-9.67386 c -3e-5,-6.80746 0.13432,-10.6143 0.40308,-11.42053 0.26868,-0.71651 0.76133,-1.47787 1.47795,-2.2841 0.98526,-0.89565 2.10492,-1.47788 3.35898,-1.74668" id="text7752" inkscape:connector-curvature="0" />
    </g>
</svg>
