<?xml version="1.0" encoding="UTF-8" standalone="no" ?>
<!-- Created with Inkscape (http://www.inkscape.org/) -->

<svg xmlns:dc="http://purl.org/dc/elements/1.1/" xmlns:cc="http://creativecommons.org/ns#" xmlns:rdf="http://www.w3.org/1999/02/22-rdf-syntax-ns#" xmlns:svg="http://www.w3.org/2000/svg" xmlns="http://www.w3.org/2000/svg" xmlns:sodipodi="http://sodipodi.sourceforge.net/DTD/sodipodi-0.dtd" xmlns:inkscape="http://www.inkscape.org/namespaces/inkscape" width="25" height="25" id="svg2" sodipodi:version="0.32" inkscape:version="0.48.4 r9939" sodipodi:docname="plus sign white.svg" inkscape:output_extension="org.inkscape.output.svg.inkscape" version="1.1">
    <metadata id="metadata8">
        <rdf:RDF>
            <cc:Work rdf:about="">
                <dc:format>image/svg+xml</dc:format>
                <dc:type rdf:resource="http://purl.org/dc/dcmitype/StillImage" />
            </cc:Work>
        </rdf:RDF>
    </metadata>
    <defs id="defs6" />
    <sodipodi:namedview pagecolor="#ffffff" bordercolor="#666666" borderopacity="1" objecttolerance="10" gridtolerance="10" guidetolerance="10" inkscape:pageopacity="0" inkscape:pageshadow="2" inkscape:window-width="1366" inkscape:window-height="702" id="namedview5" showgrid="false" inkscape:zoom="3.3714286" inkscape:cx="34" inkscape:cy="35" inkscape:window-x="-4" inkscape:window-y="0" inkscape:window-maximized="1" inkscape:current-layer="layer1" />
    <g inkscape:label="Layer 1" inkscape:groupmode="layer" id="layer1">
        <path style="font-size:1000px;font-style:normal;font-variant:normal;font-weight:normal;font-stretch:normal;fill:#ffffff;fill-opacity:1;stroke:none;font-family:OCRA;-inkscape-font-specification:OCRA" d="m 11.787217,0.18234949 1.070064,0 c 0.101892,0.03402 0.254759,0.1019422 0.458601,0.203823 0.475561,0.2378228 0.832251,0.6114953 1.070063,1.12101831 0.169831,0.3057615 0.254755,1.0191377 0.254774,2.1401297 -1.9e-5,0.101938 -1.9e-5,0.866266 0,2.292992 l 0,3.770702 3.719746,0 c 2.445837,2.3e-5 3.736706,0.01699 3.872612,0.05096 1.053051,0.203842 1.698484,0.7983195 1.936307,1.7834385 0.03394,0.203842 0.05092,0.407661 0.05095,0.611465 -3e-5,1.053095 -0.475615,1.783454 -1.426753,2.191081 -0.16988,0.101931 -0.356716,0.169869 -0.560509,0.203823 -0.135907,0.03398 -1.426776,0.05097 -3.872613,0.05096 l -3.719746,0 0,3.770701 c -1.8e-5,2.64969 -0.08494,4.127395 -0.254774,4.433122 -0.237811,0.509561 -0.594502,0.883234 -1.070063,1.121018 -0.475603,0.237797 -0.934201,0.322725 -1.375797,0.254775 -0.169868,-0.03398 -0.356705,-0.08492 -0.560508,-0.152865 -0.30575,-0.1019 -0.594498,-0.288737 -0.866244,-0.560509 C 10.241555,23.19722 10.054719,22.908472 9.952823,22.602734 9.8508958,22.297011 9.7999438,20.853275 9.7999558,18.271523 l 0,-3.668789 -3.8216535,0 -3.7707012,-0.05095 -0.203823,-0.05096 C 0.88275207,14.161138 0.28827361,13.379823 0.22033898,12.156874 0.22033515,11.001905 0.81481369,10.22059 2.0037781,9.8129265 l 0.203823,-0.101912 3.7707012,0 3.8216535,0 0,-3.66879 c -1.2e-5,-2.581714 0.05094,-4.02545 0.1528672,-4.3312107 0.101896,-0.2717347 0.288732,-0.5604787 0.560509,-0.86623951 0.373657,-0.3396735 0.798286,-0.5604826 1.273885,-0.6624248" id="text7752" inkscape:connector-curvature="0" />
    </g>
</svg>
