<?xml version="1.0" encoding="UTF-8" standalone="no" ?>
<!-- Created with Inkscape (http://www.inkscape.org/) -->

<svg xmlns:dc="http://purl.org/dc/elements/1.1/" xmlns:cc="http://creativecommons.org/ns#" xmlns:rdf="http://www.w3.org/1999/02/22-rdf-syntax-ns#" xmlns:svg="http://www.w3.org/2000/svg" xmlns="http://www.w3.org/2000/svg" xmlns:sodipodi="http://sodipodi.sourceforge.net/DTD/sodipodi-0.dtd" xmlns:inkscape="http://www.inkscape.org/namespaces/inkscape" width="34" height="34" id="svg2" sodipodi:version="0.32" inkscape:version="0.48.4 r9939" sodipodi:docname="plus sign white.svg" inkscape:output_extension="org.inkscape.output.svg.inkscape" version="1.1">
    <sodipodi:namedview pagecolor="#ffffff" bordercolor="#666666" borderopacity="1" objecttolerance="10" gridtolerance="10" guidetolerance="10" inkscape:pageopacity="0" inkscape:pageshadow="2" inkscape:window-width="1366" inkscape:window-height="702" id="namedview5" showgrid="false" inkscape:zoom="3.3714286" inkscape:cx="34" inkscape:cy="35" inkscape:window-x="-4" inkscape:window-y="0" inkscape:window-maximized="1" inkscape:current-layer="layer1" />
    <g inkscape:label="Layer 1" inkscape:groupmode="layer" id="layer1">
        <path style="font-size:1000px;font-style:normal;font-variant:normal;font-weight:normal;font-stretch:normal;fill:#ffffff;fill-opacity:1;stroke:none;font-family:OCRA;-inkscape-font-specification:OCRA" d="m 15.642843,0.18327466 1.426751,0 c 0.135856,0.04536 0.339679,0.135923 0.611468,0.271764 0.634082,0.317097 1.109669,0.81532704 1.426751,1.49469104 0.226441,0.407682 0.339674,1.35885 0.339699,2.853506 -2.5e-5,0.135917 -2.5e-5,1.155022 0,3.057323 l 0,5.0276023 4.959661,0 c 3.261116,3e-5 4.982274,0.02265 5.163483,0.06794 1.404067,0.271789 2.264645,1.064427 2.581742,2.377919 0.04526,0.271789 0.0679,0.543548 0.06794,0.815286 -4e-5,1.404127 -0.634153,2.377939 -1.902337,2.921442 -0.226507,0.135907 -0.475622,0.226492 -0.747346,0.271764 -0.181209,0.04531 -1.902367,0.06796 -5.163483,0.06794 l -4.959661,0 0,5.027601 c -2.5e-5,3.53292 -0.113258,5.503193 -0.339699,5.910829 -0.317082,0.679415 -0.792669,1.177645 -1.426751,1.494691 -0.634137,0.317062 -1.245601,0.4303 -1.834396,0.3397 -0.226491,-0.0453 -0.475606,-0.113221 -0.747344,-0.203821 C 14.691655,31.843586 14.306657,31.59447 13.944329,31.232107 13.58196,30.869768 13.332845,30.484771 13.196984,30.07712 13.061081,29.66949 12.993145,27.744509 12.993161,24.302173 l 0,-4.891719 -5.0955378,0 -5.0276015,-0.06794 -0.2717639,-0.06794 C 1.1035564,18.821659 0.31091848,17.779906 0.22033898,16.149307 0.22033388,14.609349 1.0129719,13.567596 2.5982578,13.024043 l 0.2717639,-0.135882 5.0276015,0 5.0955378,0 0,-4.8917203 c -1.6e-5,-3.442285 0.06792,-5.367266 0.203823,-5.774947 0.135861,-0.362313 0.384976,-0.747305 0.747345,-1.154986 0.49821,-0.45289804 1.064382,-0.74731004 1.698514,-0.88323304" id="text7752" inkscape:connector-curvature="0" />
    </g>
</svg>
