<?xml version="1.0" encoding="UTF-8" standalone="no" ?>
<svg xmlns:dc="http://purl.org/dc/elements/1.1/" xmlns:cc="http://creativecommons.org/ns#" xmlns:rdf="http://www.w3.org/1999/02/22-rdf-syntax-ns#" xmlns:svg="http://www.w3.org/2000/svg" xmlns="http://www.w3.org/2000/svg" xmlns:sodipodi="http://sodipodi.sourceforge.net/DTD/sodipodi-0.dtd" xmlns:inkscape="http://www.inkscape.org/namespaces/inkscape" height="32px" id="theid1" style="enable-background:new 0 0 32 32;" version="1.1" viewBox="0 0 38 32" width="32" xml:space="preserve" inkscape:version="0.48.4 r9939" sodipodi:docname="twitter.svg">
    <metadata id="metadata12">
        <rdf:RDF>
            <cc:Work rdf:about="">
                <dc:format>image/svg+xml</dc:format>
                <dc:type rdf:resource="http://purl.org/dc/dcmitype/StillImage" />
            </cc:Work>
        </rdf:RDF>
    </metadata>
    <defs id="defs10" />
    <sodipodi:namedview pagecolor="#ffffff" bordercolor="#666666" borderopacity="1" objecttolerance="10" gridtolerance="10" guidetolerance="10" inkscape:pageopacity="0" inkscape:pageshadow="2" inkscape:window-width="1366" inkscape:window-height="702" id="namedview8" showgrid="false" inkscape:zoom="0.4609375" inkscape:cx="256" inkscape:cy="256" inkscape:window-x="-4" inkscape:window-y="0" inkscape:window-maximized="1" inkscape:current-layer="形状_2_1_" />
    <g id="theid_2" transform="matrix(0.06957096,0,0,0.06957096,2.5129877,-0.30989983)">
        <g id="g4">
            <path d="m 485.98,113.141 c -16.923,7.506 -35.109,12.578 -54.197,14.858 19.48,-11.679 34.445,-30.171 41.49,-52.208 -18.234,10.814 -38.43,18.668 -59.925,22.899 -17.213,-18.341 -41.738,-29.799 -68.88,-29.799 -52.114,0 -94.368,42.25 -94.368,94.364 0,7.396 0.834,14.598 2.444,21.505 C 174.117,180.824 104.582,143.256 58.04,86.163 49.917,100.1 45.263,116.309 45.263,133.604 c 0,32.739 16.659,61.623 41.98,78.546 -15.469,-0.491 -30.02,-4.735 -42.742,-11.804 -0.009,0.395 -0.009,0.788 -0.009,1.188 0,45.721 32.529,83.859 75.698,92.531 -7.918,2.156 -16.255,3.311 -24.861,3.311 -6.081,0 -11.992,-0.593 -17.755,-1.693 12.009,37.488 46.858,64.773 88.153,65.533 -32.296,25.312 -72.985,40.396 -117.198,40.396 -7.617,0 -15.128,-0.446 -22.511,-1.32 41.762,26.775 91.365,42.4 144.655,42.4 173.574,0 268.493,-143.794 268.493,-268.496 0,-4.091 -0.092,-8.16 -0.273,-12.208 18.439,-13.304 34.437,-29.924 47.087,-48.847 z" style="fill:#2ca7e0;fill-rule:evenodd" id="path6" inkscape:connector-curvature="0" />
        </g>
    </g>
</svg>
